<svg xmlns="http://www.w3.org/2000/svg" id="Layer_1" data-name="Layer 1" viewBox="0 0 1183.41 955.68">
  <defs>
    <style>
      .cls-1 {
        fill: #7eb146;
      }

      .cls-1, .cls-2, .cls-3, .cls-4, .cls-5, .cls-6 {
        stroke-width: 0px;
      }

      .cls-2 {
        fill: #4f9489;
      }

      .cls-3 {
        fill: #11b3b3;
      }

      .cls-4 {
        fill: #3b4a68;
      }

      .cls-5 {
        fill: #2e0b3b;
      }

      .cls-6 {
        fill: #e2d9c3;
      }
    </style>
  </defs>
  <circle class="cls-6" cx="520.97" cy="477.84" r="477.84"/>
  <path class="cls-2" d="m.73,143.92c-.54-.05-.87-.27-.67-.88.56.04,1.13.07.67.88Z"/>
  <path class="cls-2" d="m6.28,139.02c.34.07.52.28.54.62-.24-.16-.42-.37-.54-.62Z"/>
  <path class="cls-4" d="m1142.57,889.55c-.16.87-.69,1.38-1.51,1.63.22-.8.71-1.36,1.51-1.63Z"/>
  <path class="cls-4" d="m1183.41,839.36c-.31.43-.61.85-.92,1.28.03-.62.3-1.07.92-1.28Z"/>
  <path class="cls-6" d="m1113.29,413.24c-.07-.39.07-.56.43-.51-.12.19-.24.38-.36.57,0,0-.07-.05-.07-.05Z"/>
  <g>
    <path class="cls-4" d="m472.3,907.43c-29.88-3.79-59.45-9.13-88.45-17.49-17.77-5.12-35.2-11.15-52.32-18.13-1.66-.68-3.23-1.55-4.85-2.33.38-3.66,1.73-6.96,3.67-10.06,4.8-7.68,10.64-14.47,17.3-20.59.85-.78,2.31-1.28,1.79-3.25-2.4-1.13-5.02-2.27-7.56-3.57-10.1-5.15-20.02-10.62-29.86-16.28-25.5-14.65-49.78-31.04-72.24-50.07-1.6-1.36-3.06-2.87-3.76-4.39,3.03-4.75,6.82-4.38,11.2-3.16,4.99,1.38,9.93,2.92,15.13,3.67,7.11,1.03,13.78,3.77,20.42,6.67,8.03,3.5,16.13,6.79,23.56,11.49.6.38,1.32.64,2.01.76,2.55.43,4.65,1.77,6.86,3.02,4.37,2.49,8.76,5.03,13.86,5.84,4.67.74,9.11,2.03,13,4.89,1.79,1.32,3.9,1.9,6.14,1.46,1.34-.26,1.83-1.12,1-2.33-.39-.58-.96-1.1-1.55-1.47-6.46-3.97-12.12-9-18.13-13.57-8.01-6.08-16.09-12.07-24.21-18-2.4-1.75-4.3-3.37-2.24-6.58.82-1.27.07-2.36-.84-3.37-.64-.7-2.04-1.05-1.44-2.43.71-.6,1.5-.47,2.09-.14,6.5,3.58,12.8,1.6,19.15-.49,1.37-.45,2.84-.69,3.94-1.67,1.78-1.58,3.9-1.66,6.09-1.63,2.34.03,4.68,0,7.02.02,1.49,0,2.91-.12,3.59-1.76,3.37-.52,6.78-.85,10.1-1.58,15.42-3.41,30.25-8.1,41.41-20.26.47-.51,1.18-.8,1.77-1.2.64,2.12,2.51,3.03,4.19,3.97,9.87,5.5,19.53,11.39,29.68,16.37,1.95,4.65,1.73,9.55,1.45,14.39-.22,3.7-1.65,7.24-4.39,9.63-4.9,4.26-9.11,9.2-13.92,13.53-1.35,1.22-2.42,2.62-3.33,4.21-4.08,7.11-6.84,14.53-7.65,22.84-.71,7.25-.65,14.36.27,21.54,1.47,11.47,4.81,22.1,12.83,30.85,5.84,6.38,11.9,12.52,19.02,17.47,8,5.57,16.77,9.54,25.94,12.94,24.92,9.23,50.47,12.99,76.88,9.72,23.29-2.89,43.47-12.74,60.11-29.17,10.58-10.45,17.91-23.42,24.7-36.58.97-1.89,1.51-4.06,1.93-6.17,2.26-11.4,1.19-22.59-2.5-33.55-1.32-3.93-2.81-7.8-4.18-11.71-2.95-8.43-8.01-15.24-15.42-20.26-5.8-3.93-11.6-7.87-17.39-11.82-1.2-.82-2.32-1.78-2.96-3.1-4.53-9.32-10.28-17.94-13.26-28.15-4.18-14.33-9.56-28.32-13.22-42.82-6.78-26.88-8.88-54.28-9.05-81.91-.06-10.29.66-20.54,1.74-30.73,1.27-11.99,3.46-23.89,4.72-35.88,1.43-13.62,6.72-25.28,16.01-35.21,4.25-.53,7.39-3.51,11.17-5.1,8.65-3.64,16.74-8.42,24.08-14.17,13.24-10.38,27.68-18.65,42.83-25.77,4.87-2.29,9.32-5.43,14.56-6.94-.1,1.08-.19,2.15-.29,3.23-1.26,13.78,2.87,26.71,6.23,39.76,1.03,4.01,2.31,7.95,3.39,11.95.5,1.85,1.45,2.39,3.13,1.46.79-.43,1.52-.96,2.3-1.41,11.96-6.98,23.85-14.09,35.9-20.9,17.7-9.99,35.09-20.51,52.95-30.23,11.05-6.02,21.69-12.79,32.6-19.08,15.74-9.08,31.62-17.9,47.29-27.1,6.02-3.54,12.26-6.92,17.14-12.1,12.32-13.09,25.85-24.93,38.61-37.57,1.42-1.41,2.95-2.64,4.88-3.28,4.88,9.4,8.32,19.42,12.69,29.04.61,6.17,3.31,11.75,4.93,17.64,9.97,36.19,15.2,72.9,13.52,110.53-.35,7.74-.58,15.51-1.58,23.16-2.27,17.46-4.35,35-10.38,51.74-2.98,8.28-4.52,16.99-7.85,25.19-8.69,21.38-18.94,41.97-29.96,62.24-8.54,15.71-17.97,30.82-28.66,45.08-14.93,19.92-32.6,37.41-50.62,54.47-9.66,9.14-20.11,17.44-30.78,25.41-22.56,16.83-46.5,31.44-71.43,44.47-1.66.87-3.66,1.33-4.64,2.82,5.94,11.15,14.69,20.15,18.77,31.93.22.63.87,1.12,1.33,1.67-5.89,3.94-12.65,5.91-19.17,8.43-13.03,5.04-26.14,9.86-39.5,13.94-21.35,6.52-43.28,10.36-65.27,13.9-31.35,5.06-62.92,6.07-94.59,5.34-9.34-.21-18.65-1.11-27.94-2.12-.5-.03-.99-.06-1.49-.09Zm353.39-231.08c-.09,0-.19,0-.28,0,0,2.52.08,5.04-.02,7.56-.09,2.23.69,3.33,3.06,3.3,2.69-.03,5.4.06,8.08.31,2.53.23,3.66-.7,3.62-3.29-.07-3.96,0-7.92.01-11.88.02-5.2.03-5.23,5.42-5.26,3.6-.02,7.2-.02,10.79.14,2.36.1,3.22-.89,3.13-3.16-.12-3.06-.18-6.12-.1-9.18.06-2.51-1.07-3.7-3.51-3.65-3.95.08-7.9.2-11.86.34-3.51.12-3.66.07-3.62-3.5.04-4.14.34-8.28.33-12.41,0-4.06-.13-4.1-4.34-4.13-2.52-.02-5.04.17-7.55.11-2.57-.06-3.42,1.13-3.43,3.61-.02,4.32-.36,8.63-.45,12.95-.04,1.97-.67,2.94-2.84,2.87-3.77-.12-7.56.14-11.33-.04-2.93-.14-3.74,1.13-3.63,3.82.12,3.05.03,6.12-.12,9.18-.11,2.28.74,3.25,3.08,3.27,4.15.04,8.26-.38,12.37-.83,2.24-.25,3.39.38,3.23,2.87-.15,2.33-.03,4.68-.03,7.02Z"/>
    <path class="cls-1" d="m917.61,371.68c-4.37-9.62-7.81-19.65-12.69-29.04-.38-1.2-.65-2.44-1.15-3.59-4.56-10.56-9.2-21.05-15.31-30.88-6.91-11.12-12.95-22.8-19.85-33.93-5.01-8.08-10.67-15.76-16.28-23.43-4.77-6.53-9.83-12.85-14.9-19.15-2.89-3.59-5.14-3.4-7.56.44-.85,1.35-1.41,2.9-2.06,4.38-4.56,10.4-7.9,21.24-11.29,32.05-.96,3.06-2.2,5.33-5.86,5-5.67-1.9-11.33-3.8-17-5.7-.44-.21-.88-.42-1.32-.63-2.41-.92-4.82-1.83-7.23-2.75-.6-.92-1.41-1.51-2.56-1.51-4.69-1.36-7.99-4.83-11.74-7.64-.13-.27-.18-.55-.15-.85-.13-.52-.25-1.03-.38-1.55,1.06-16.56-.77-32.76-6.17-48.47-2.07-6-4.76-11.89-9.7-16-5.78-4.81-11.3-10.04-18.08-13.57-3.35-1.75-6.62-3.65-9.87-5.59-7.02-4.18-14.48-7.19-22.42-9.1-2.47-.6-5.11-.09-7.4-.9-7.2-2.54-14.41-2.87-21.73-.98-13.54,3.49-25.63,9.3-34.19,21.05-2.85,3.91-6.04,7.62-9.69,10.86-7.53-.41-14.91.38-22.13,2.61.66-1.28,1.18-2.65,2-3.81,7.24-10.35,9.49-21.79,8.42-34.29-1.17-13.76-6.39-24.87-18.31-32.45-4.54-2.89-8.79-6.23-13.27-9.22-11.18-7.46-22.94-13.46-36.77-13.98-1.16-.61-2.42-.58-3.67-.64-13.94-.68-27.45,1.42-40.82,5.47-18.19,5.51-34.26,14.57-48.41,27.15-2.38,2.12-5.11,4.03-6.24,7.27-1.01.77-1.94,1.6-2.25,2.91-5.01,5.4-9.91,10.91-15.07,16.16-6.12,6.23-11,13.29-14.98,21-11.38,22.04-6.83,50.46,10.94,67.78,3.09,3.01,6.5,5.68,9.73,8.54,2.56,2.27,5.05,4.63,6.46,7.85,6.75,15.45,11.57,31.37,11.73,48.42-.75.77-1.66,1.44-2.23,2.33-3.71,5.83-8.84,9.84-15.21,12.43-3.94,1.6-6.82,4.5-9.29,7.97-2.1,2.96-4.32,5.9-5.38,9.32-2.73,8.84-8.95,12.09-17.63,11.88-.54-.01-1.08.03-1.62.07-6.73.56-13.04,2.38-18.92,5.81-7.71,4.5-16.11,6.13-24.93,5.16-7.68-.84-15.22-2.51-23.02-2.73-9.46-.26-18.8-2.63-26.73-7.69-11.27-7.19-23.49-12.56-34.89-19.46-10.6-6.41-19.86-5.28-29.01,3.19-2.7,2.5-5.68,3.65-9.3,3.49-2.73-.12-5.35-.71-7.93-1.51-7.77-2.39-15.06-5.96-22.36-9.45-10.68-5.1-10.62-5.15-21.24.23-5.13,2.6-10.18,5.7-15.95,6.46-10.16,1.34-20.38,2.27-30.6,3.21-4.66.43-4.62.28-6.38,4.92-3.26,8.59-6.6,17.14-9.9,25.71-.69.24-1.1.66-.89,1.45-.07.26-.17.52-.31.76-1.45.27-2.69.97-3.8,1.89-5.44,4.5-11.89,7.22-18.19,10.18-9.37,4.39-18.98,8.28-27.49,14.35-.98.7-2.3.9-3.47,1.33-.27-5.13,1.11-10.03,2.34-14.88,6.08-23.95,13.43-47.49,23.46-70.12,11.94-26.95,26.81-52.19,44.12-76.01,11.02-15.16,22.57-29.88,35.35-43.6,26.53-28.48,56.14-53.26,88.75-74.52,26.8-17.48,55.08-32.11,84.67-44.1,35.68-14.47,72.67-24.43,110.94-29.05,31.33-3.78,62.8-5.34,94.34-3.21,12.73.86,25.35,2.58,37.96,4.82,15.48,2.75,30.79,6.08,46.02,9.87,20.32,5.06,39.81,12.47,58.95,20.92,15.33,6.76,30.39,14.06,45.17,21.93,30.83,16.41,58.89,36.73,85.37,59.48,28.19,24.22,52.71,51.69,74.03,82.03,7.32,10.41,13.82,21.43,20.48,32.32,13.14,21.49,23.02,44.38,31.82,67.79,6.08,16.18,11.16,32.73,14.61,49.73.21,1.05.3,2.14.44,3.21-5.25-2.66-10.5-5.3-15.74-7.98-10.06-5.14-20.09-10.33-30.16-15.45-2.38-1.21-5.09-1.81-7.08-3.77ZM345.45,143.37c5.41-.27,9.51-2.85,12.76-7.08,7.17-9.33,6.27-15.39-3.38-22.1-5.4-3.75-7.66-3.5-11.64,1.81-3.14,4.2-5.4,8.93-7.15,13.88-2.63,7.42,1.61,13.45,9.42,13.49Zm-118.17,144.66c-3.03-.23-5.78.73-7.4,3.84-1.69,3.25-1.99,6.55.16,9.72,2.91,4.28,7.04,6.67,12.16,7.08,4.89.39,8.54-3.15,8.71-8.11.23-6.89-5.66-12.41-13.62-12.53Zm44.95-94.35c-.09,3.29,1.72,5.93,4.76,6.94,2.75.92,4.55.17,6.42-3.24,1.59-2.89,3.76-5.86,1.35-9.37-.28-.41-.81-.68-1.27-.95-5.18-3.1-11.09.38-11.27,6.62Z"/>
    <path class="cls-2" d="m71.75,402.3c1.16-.43,2.49-.63,3.47-1.33,8.5-6.06,18.12-9.96,27.49-14.35,6.3-2.95,12.75-5.67,18.19-10.18,1.11-.92,2.35-1.62,3.8-1.89.28,2.4-.4,4.64-1.14,6.87-6.24,18.87-9.43,38.42-12.87,57.91-1.15,6.54-1.79,13.17-2.65,19.77-1.02,7.85-2.27,15.69-1.53,23.66.35,11.52.71,23.04,1.07,34.56.02.54.03,1.09.13,1.61.5,2.65,1.35,3.17,3.62,1.7,3.05-1.99,6.42-3.23,9.67-4.76,2.97-1.4,5.44-.9,8.09.83,15.05,9.86,30.05,19.8,45.27,29.4,25.9,16.33,51.48,33.11,76.64,50.56.95.66,2.4,1.03,2.28,2.99-6.65,1.87-13.02,4.65-19.07,8.16-9.76,5.65-6.78,5.88-16.14-.09-28.84-18.4-58.4-35.63-86.91-54.56-4.63-3.08-9.1-6.57-14.34-8.59-4.66-1.8-6.37-.2-5.54,4.67,3.76,21.94,10.62,43.02,18.2,63.84,6.54,17.96,14.61,35.26,24.66,51.61,8.76,14.26,16.83,28.96,27.17,42.19,4.33,5.53,8.74,11,13.2,16.42,2.29,2.79,3.77,3.11,6.52,1.65,1.1-.58,2.06-1.43,3.04-2.22,7.52-6.14,14.02-13.39,21.52-19.59,8.31-6.86,16.14-14.32,24.18-21.52,2.46,17.24,10.03,31.33,24.77,41.27,8.72,5.87,17.91,10.58,27.74,14.31,13.12,4.98,26.46,7.14,40.41,5.32-.68,1.65-2.09,1.77-3.59,1.76-2.34-.01-4.68,0-7.02-.02-2.19-.03-4.3.05-6.09,1.63-1.1.97-2.56,1.21-3.94,1.67-6.35,2.09-12.65,4.08-19.15.49-.6-.33-1.38-.46-2.09.14-.6,1.37.79,1.73,1.44,2.43.92,1,1.66,2.09.84,3.37-2.07,3.22-.16,4.83,2.24,6.58,8.12,5.93,16.21,11.91,24.21,18,6.01,4.57,11.67,9.6,18.13,13.57.6.37,1.16.89,1.55,1.47.83,1.21.34,2.07-1,2.33-2.24.44-4.34-.14-6.14-1.46-3.89-2.87-8.33-4.15-13-4.89-5.09-.81-9.49-3.35-13.86-5.84-2.2-1.26-4.3-2.59-6.86-3.02-.7-.12-1.42-.38-2.01-.76-7.44-4.7-15.53-7.99-23.56-11.49-6.64-2.9-13.31-5.64-20.42-6.67-5.21-.75-10.15-2.29-15.13-3.67-4.37-1.21-8.16-1.59-11.2,3.16.71,1.52,2.16,3.04,3.76,4.39,22.46,19.03,46.74,35.42,72.24,50.07,9.83,5.65,19.75,11.13,29.86,16.28,2.54,1.29,5.15,2.44,7.56,3.57.53,1.97-.94,2.47-1.79,3.25-6.66,6.12-12.49,12.91-17.3,20.59-1.94,3.1-3.29,6.4-3.67,10.06-26.38-12.56-51.55-27.26-75.49-43.97-18.03-12.58-35.26-26.28-51.26-41.35-13.76-12.96-26.44-27.01-39.11-41.07-10.76-11.94-19.66-25.22-29.03-38.16-7.07-9.77-12.96-20.35-18.73-30.95-15.3-28.1-27.48-57.53-36.3-88.26-6.22-21.64-10.85-43.71-13.4-66.1-2.3-20.27-1.89-40.64-.74-61,.95-16.77,3.52-33.3,7.08-49.68.49-2.26.69-4.64,2.05-6.64Z"/>
    <path class="cls-2" d="m917.61,371.68c1.99,1.96,4.69,2.56,7.08,3.77,10.07,5.12,20.1,10.31,30.16,15.45,5.24,2.68,10.49,5.32,15.74,7.98,3.4,10.32,4.89,21.05,6.31,31.74,2.7,20.38,3.89,40.91,3.16,61.47-1.03,28.89-4.76,57.44-12.48,85.36-11.02,39.83-27.66,77.27-48.86,112.67-17.27,28.85-37.64,55.35-60.73,79.81-33.73,35.73-72.78,64.27-115.93,87.41-7.13,3.82-14.08,8.01-21.78,10.67-.45-.55-1.11-1.03-1.33-1.67-4.08-11.78-12.83-20.77-18.77-31.93.98-1.49,2.99-1.95,4.64-2.82,24.93-13.03,48.87-27.63,71.43-44.47,10.68-7.97,21.13-16.27,30.78-25.41,18.02-17.06,35.69-34.56,50.62-54.47,10.69-14.26,20.12-29.37,28.66-45.08,11.02-20.27,21.27-40.86,29.96-62.24,3.33-8.19,4.87-16.91,7.85-25.19,6.02-16.73,8.1-34.27,10.38-51.74,1-7.65,1.23-15.42,1.58-23.16,1.68-37.62-3.55-74.34-13.52-110.53-1.62-5.89-4.32-11.47-4.93-17.64Z"/>
    <path class="cls-2" d="m472.3,907.43c.5.03.99.06,1.49.09-.5-.03-.99-.06-1.49-.09Z"/>
    <path class="cls-5" d="m342.67,742.51c-13.94,1.82-27.28-.34-40.41-5.32-9.83-3.73-19.03-8.43-27.74-14.31-14.75-9.94-22.31-24.03-24.77-41.27-.35-8.27.71-16.48,1.26-24.7.39-5.8,1.99-11.34,5.28-16.2,4.43-6.55,9.3-12.82,15.31-17.97,3.3-2.83,6.32-6.4,11.04-7.16.23,2.13-1,3.77-1.92,5.49-3.55,6.6-4.45,13.65-3.46,20.97.75,5.56,2.41,10.86,4.63,16.04,4.68,10.93,11.43,20.44,19.91,28.65,15.51,15.01,34.17,22.43,55.75,21.57,8.44-.34,16.82-2.02,23.74-7.65,9.79-6.4,20.15-11.82,30.31-17.57,3.93-2.23,7.6-4.79,10.65-8.19,3.26-3.64,4.97-7.75,5.01-12.73.05-7.02-2.11-13.46-4.52-19.86-3.36-8.92-7.34-17.58-11.29-26.25-.72-1.59-1.93-3.21-.2-4.93,3.16-1.72,4.87-4.75,6.68-7.63,12.26-19.56,25.77-38.19,40.2-56.22,28.91-36.11,58.15-71.93,88.72-106.65,12.51-14.21,26.32-27.18,38.71-41.47,7.66-8.84,16-16.84,25.19-24,.98-.77,2.04-1.46,3.15-2.02.65-.33,1.5-.14,1.99.43.53.61.28,1.34-.22,1.92-1.07,1.22-2.13,2.42-3.61,3.19-1.96,1.03-3.56,2.63-4.64,4.43-2.83,4.68-6.9,8.26-10.37,12.38-2.31,2.75-4.96,5.23-6.75,8.4-.62.36-1.07.84-1.09,1.6,0,0-.07-.02-.07-.02-2.36,1.89-4.07,4.29-5.47,6.94-7.02,9.61-14.05,19.22-21.07,28.83-6.16,6.3-11.32,13.48-17.81,19.52-13.11,12.17-24.16,26.07-34.39,40.76-13.67,19.63-26.68,39.65-38.93,60.19-10.88,18.26-19.93,37.48-29.88,56.24-1.74,3.29-1.97,6.36-.49,9.78,9.36,21.68,16.19,44.27,23.17,66.78,6.89,22.22,12.43,44.79,9.88,68.46-.17,1.59.09,3.23.16,4.85-.91.82-1.82,1.65-2.73,2.47-3.72,1.81-7.44,3.62-11.16,5.42-5.19,2.52-10.15,5.41-14.74,8.95-5.07,3.92-8.28,9.04-9.49,15.26-2.05,10.5-1.06,20.83,4.65,29.93,5.66,9.03,12.88,16.82,22.54,21.94,8.27,4.39,16.67,8.55,25.45,11.77,12.59,4.61,25.61,7.48,39.11,6.57,18.67-1.25,36.55-5.94,53.52-13.8,8.87-4.11,16.85-9.65,23.76-16.64,9.33-9.44,13.19-20.84,11.79-33.96-.53-5-1.72-9.92-2.84-14.84-2.74-11.98-9.48-20.78-20.16-26.72-3.3-1.83-6.42-3.98-9.64-5.95-2.1-1.28-3.19-3.95-5.95-4.31l.05.07c.1-.8-.27-1.2-1.06-1.22l.05.08c.22-1.3-.45-2-1.62-2.34-1.6-2.81-3.14-5.66-4.81-8.43-3.89-6.46-7.24-13.19-9.87-20.24-6.52-17.49-11.68-35.39-15.81-53.58-5.51-24.29-9.3-48.8-8.97-73.8.23-17.66,1.46-35.27,3.39-52.82,1.58-14.33,3.94-28.6,8.55-42.24,10.04-29.68,21.89-58.59,39.73-84.63,1.67-1.64,2.86-3.58,3.68-5.77,3.84-6.52,8.65-12.3,13.69-17.91,5.65-6.29,11.65-12.33,16.72-19.07,13.4-17.82,26.11-36.14,37.79-55.16,3.6-5.86,8.05-11.06,13.38-15.44,6.2-5.1,13.09-7.17,21.12-5.13,5.19,1.32,9.73,3.74,13.79,7.09,5.98,4.94,12.3,5.1,19.15,2.03,8.5-3.81,14.98-10.24,21.21-16.77,5.83-6.11,10.61-13.16,14.36-20.82,2.26-4.62,4.62-9.2,6.93-13.8.27.17.54.33.83.48-.03.3.02.58.15.84-.73,7.19-2.66,14.14-4.13,21.19-1.17,5.66-2.93,11.11-5.38,16.37-12.21,26.19-41.04,37.67-62.1,36.07-3.07-.23-5.03.84-6.99,3.01-8.56,9.49-17.28,18.83-25.9,28.27-11.28,12.37-21.79,25.37-31.74,38.83-.54.17-.87.53-.95,1.09l-.08.1c-.49.13-.8.43-.86.96-.24.2-.42.44-.54.72-.33.42-.67.84-1,1.26,0,0,0,0,0,0-.32.39-.64.78-.96,1.18-2.08,1.95-3.82,4.19-5.41,6.55-.54.18-.84.55-.92,1.11l-.06.07c-.53.16-.84.5-.91,1.06l-.1.14c-.72.35-1.16.92-1.35,1.7-.34.44-.68.88-1.02,1.33l-.89,1.14s-.02.02-.02.02c-.81.38-1.24,1.05-1.47,1.88,0,0,.09-.08.09-.08l-1.06,1.22s.06-.06.06-.06c-.35.41-.7.82-1.06,1.23l.06-.07c-.57.21-.91.62-1.04,1.21l.02-.03c-.55.19-.88.56-.94,1.16l-.07.11c-.74.41-1.13,1.06-1.31,1.86h0c-.55.22-.86.62-.95,1.2h0c-.55.2-.86.59-.93,1.17l-.03.05c-.74.38-1.16.99-1.37,1.78-1.28,1.5-2.59,2.98-3.82,4.51-14.06,17.37-25.74,36.36-37.55,55.25-9.29,9.94-14.58,21.6-16.01,35.21-1.26,11.99-3.45,23.89-4.72,35.88-1.08,10.2-1.8,20.44-1.74,30.73.17,27.63,2.26,55.03,9.05,81.91,3.66,14.5,9.03,28.49,13.22,42.82,2.98,10.2,8.73,18.82,13.26,28.15.64,1.31,1.75,2.28,2.96,3.1,5.79,3.95,11.59,7.89,17.39,11.82,7.41,5.02,12.47,11.82,15.42,20.26,1.37,3.91,2.85,7.78,4.18,11.71,3.69,10.96,4.76,22.15,2.5,33.55-.42,2.11-.96,4.28-1.93,6.17-6.79,13.17-14.12,26.13-24.7,36.58-16.64,16.43-36.83,26.28-60.11,29.17-26.41,3.27-51.95-.49-76.88-9.72-9.17-3.39-17.94-7.37-25.94-12.94-7.12-4.95-13.17-11.09-19.02-17.47-8.02-8.75-11.36-19.39-12.83-30.85-.92-7.18-.97-14.29-.27-21.54.81-8.31,3.56-15.74,7.65-22.84.91-1.59,1.98-2.99,3.33-4.21,4.81-4.33,9.02-9.27,13.92-13.53,2.75-2.39,4.17-5.93,4.39-9.63.29-4.85.51-9.75-1.45-14.39-2.79-14.81-8.09-28.87-12.38-44.22-3.28,5.39-7.16,8.84-10.74,12.56-3.61,3.75-7.53,7.2-10.75,11.31-.6.39-1.3.69-1.77,1.2-11.17,12.17-25.99,16.85-41.41,20.26-3.32.74-6.73,1.07-10.1,1.58Z"/>
    <path class="cls-2" d="m810.66,273.53c3.66.32,4.9-1.94,5.86-5,3.39-10.81,6.73-21.65,11.29-32.05.65-1.48,1.2-3.03,2.06-4.38,2.42-3.84,4.67-4.03,7.56-.44,5.07,6.3,10.12,12.63,14.9,19.15,5.62,7.68,11.28,15.36,16.28,23.43,6.9,11.13,12.93,22.8,19.85,33.93,6.11,9.83,10.75,20.32,15.31,30.88.49,1.15.77,2.39,1.15,3.59-1.93.65-3.46,1.88-4.88,3.28-12.76,12.63-26.29,24.48-38.61,37.57-4.88,5.18-11.12,8.57-17.14,12.1-15.66,9.2-31.55,18.02-47.29,27.1-10.91,6.29-21.55,13.06-32.6,19.08-17.85,9.72-35.25,20.24-52.95,30.23-12.06,6.81-23.94,13.92-35.9,20.9-.78.45-1.51.98-2.3,1.41-1.68.92-2.63.39-3.13-1.46-1.08-4-2.36-7.94-3.39-11.95-3.36-13.05-7.49-25.99-6.23-39.76.1-1.08.19-2.15.29-3.23.81-1.19,1.61-2.42,3.03-2.98,6.21-2.45,11.72-6.26,17.7-9.17,12.2-5.92,23.56-13.07,32.55-23.52,1.48-1.72,2.9-3.74,5.41-4.25.53-.38,1.07-.76,1.6-1.14l-.05.05c.38-.38.75-.76,1.13-1.13,0,0-.05.05-.05.05.38-.38.75-.76,1.13-1.13,0,0-.05.05-.05.05,5.27-2.63,8.83-6.77,10.77-12.31,4.15-1.49,6.19-5.31,9.04-8.23,6.63-6.8,13.49-13.4,19.19-21.06,6.17-8.29,10.15-17.27,9.43-27.91-.23-3.4-.12-6.82-.16-10.23,4.26-.5,8.52-1.01,12.78-1.5,3.94-.45,7.05-2.07,9.35-5.52,2.28-3.43,4.85-6.65,6.79-10.32,3.51-6.65,6.16-13.74,10.37-20.03.9-1.35.54-2.75-.09-4.1Zm63.75,38.87c-2.18-.08-3.76,1.19-5.16,2.56-14.1,13.78-30.86,23.52-48.36,32.14-9.99,4.92-18.53,11.49-25.39,20.42-6.24,8.13-12.77,16.11-21.23,22.17-.86.62-2.02,1.04-2.78,2.93,6.8-3.03,11.81-7.04,16.09-11.97,3.42-3.95,6.67-8.04,10.02-12.05,3.81-4.57,7.9-9.03,12.68-12.4,7.03-4.96,14.79-8.84,22.62-12.49,12.18-5.68,22.76-13.8,32.89-22.48,3.1-2.66,6.52-5.14,8.7-8.77.12-.19.24-.38.36-.57-.36-.05-.51.12-.43.51Z"/>
    <path class="cls-3" d="m810.66,273.53c.63,1.35,1,2.75.09,4.1-4.21,6.29-6.87,13.38-10.37,20.03-1.93,3.67-4.5,6.89-6.79,10.32-2.3,3.45-5.41,5.07-9.35,5.52-4.26.49-8.52,1-12.78,1.5-4.45-.04-7.39,2.37-9.4,6.05-1.2,2.2-2.11,4.56-3.21,6.82-8.14,16.57-14.93,33.79-23.83,50-.76,1.38-1.78,2.73-1.27,4.49-4.29,3.47-7.7,7.7-10.57,12.38,0,0,.05-.05.05-.05-.38.38-.75.76-1.13,1.13l.05-.05c-.38.38-.75.76-1.13,1.13,0,0,.05-.05.05-.05-.53.38-1.07.76-1.6,1.14-2.51.51-3.93,2.53-5.41,4.25-8.99,10.45-20.35,17.6-32.55,23.52-5.99,2.91-11.49,6.72-17.7,9.17-1.42.56-2.21,1.79-3.03,2.98-5.23,1.51-9.69,4.65-14.55,6.94-15.15,7.12-29.59,15.39-42.83,25.77-7.34,5.76-15.43,10.54-24.08,14.17-3.78,1.59-6.92,4.57-11.17,5.1,11.81-18.9,23.49-37.89,37.55-55.25,1.24-1.53,2.55-3.01,3.82-4.51.83-.31,1.26-.92,1.37-1.78,0,0,.03-.05.03-.05.31-.39.62-.79.93-1.18,0,0,0,0,0,0,.32-.4.63-.8.95-1.2,0,0,0,0,0,0,.79-.37,1.21-1.01,1.31-1.87,0,0,.07-.11.07-.11.31-.38.62-.77.94-1.16,0,0-.02.03-.02.03.35-.4.69-.8,1.04-1.21,0,0-.06.07-.06.07.35-.41.7-.82,1.05-1.23,0,0-.06.06-.06.06.35-.41.71-.81,1.06-1.22,0,0-.09.08-.09.08.89-.31,1.36-.96,1.47-1.88,0,0,.02-.02.02-.02.3-.38.59-.76.89-1.14.34-.44.68-.88,1.02-1.33.78-.3,1.21-.89,1.35-1.7,0,0,.1-.14.1-.14.3-.35.6-.71.91-1.06,0,0,.06-.07.06-.07.31-.37.61-.74.92-1.11,1.59-2.36,3.33-4.59,5.41-6.55.32-.39.64-.79.96-1.18,0,0,0,0,.01,0,.33-.42.67-.84,1-1.26.12-.28.3-.52.53-.72.29-.32.57-.64.86-.96,0,0,.08-.1.08-.09.32-.36.63-.73.95-1.09,9.95-13.46,20.46-26.46,31.74-38.83,8.61-9.44,17.33-18.79,25.9-28.27,1.96-2.17,3.92-3.25,6.99-3.01,21.05,1.6,49.89-9.88,62.1-36.07,2.45-5.26,4.21-10.71,5.38-16.37,1.46-7.05,3.4-14,4.13-21.19,3.74,2.81,7.05,6.28,11.74,7.64.43,1.22,1.25,1.78,2.56,1.51,2.41.92,4.82,1.83,7.23,2.75.44.21.88.42,1.32.63,5.67,1.9,11.33,3.8,17,5.7Z"/>
    <path class="cls-6" d="m825.68,676.35c0-2.34-.12-4.69.03-7.02.16-2.49-.99-3.12-3.23-2.87-4.11.45-8.22.87-12.37.83-2.34-.02-3.19-.99-3.08-3.27.15-3.06.24-6.12.12-9.18-.11-2.69.7-3.96,3.63-3.82,3.77.19,7.55-.08,11.33.04,2.17.07,2.8-.89,2.84-2.87.1-4.32.43-8.64.45-12.95.01-2.47.86-3.67,3.43-3.61,2.51.06,5.03-.13,7.55-.11,4.21.03,4.33.08,4.34,4.13,0,4.14-.29,8.28-.33,12.41-.03,3.56.11,3.61,3.62,3.5,3.95-.13,7.9-.26,11.86-.34,2.44-.05,3.57,1.14,3.51,3.65-.08,3.06-.02,6.12.1,9.18.09,2.27-.77,3.27-3.13,3.16-3.59-.16-7.19-.16-10.79-.14-5.39.03-5.4.06-5.42,5.26-.02,3.96-.08,7.92-.01,11.88.05,2.59-1.08,3.52-3.62,3.29-2.68-.24-5.39-.34-8.08-.31-2.37.03-3.15-1.07-3.06-3.3.11-2.52.02-5.04.02-7.56.09,0,.19,0,.28,0Z"/>
    <path class="cls-2" d="m395.95,719.46c3.22-4.12,7.14-7.57,10.75-11.31,3.58-3.72,7.46-7.17,10.74-12.56,4.3,15.34,9.6,29.41,12.38,44.22-10.15-4.98-19.81-10.87-29.68-16.37-1.68-.94-3.55-1.86-4.19-3.97Z"/>
    <path class="cls-3" d="m106.5,482.77c-.74-7.97.51-15.8,1.53-23.66.85-6.59,1.49-13.23,2.65-19.77,3.44-19.49,6.63-39.04,12.87-57.91.74-2.23,1.42-4.47,1.14-6.87.14-.24.24-.49.3-.75.7-.23.83-.83.89-1.46,3.3-8.57,6.64-17.12,9.9-25.71,1.76-4.64,1.72-4.49,6.38-4.92,10.21-.94,20.43-1.88,30.6-3.21,5.77-.76,10.82-3.86,15.95-6.46,10.62-5.39,10.55-5.34,21.24-.23,7.3,3.49,14.59,7.05,22.36,9.45,2.59.8,5.21,1.39,7.93,1.51,3.62.16,6.6-.99,9.3-3.49,9.14-8.47,18.41-9.6,29.01-3.19,11.4,6.9,23.62,12.27,34.89,19.46,7.93,5.06,17.27,7.42,26.73,7.69,7.8.22,15.34,1.89,23.02,2.73,8.83.97,17.22-.67,24.93-5.16,5.88-3.43,12.19-5.25,18.92-5.81.54-.05,1.08-.09,1.62-.07,8.68.21,14.9-3.04,17.63-11.88,1.06-3.42,3.27-6.37,5.38-9.32,2.47-3.48,5.35-6.37,9.29-7.97,6.37-2.59,11.49-6.6,15.21-12.43.57-.89,1.48-1.56,2.23-2.34,1.39,16.6.34,33.15-1.69,49.61-2.27,18.36-5.79,36.44-12.05,54.01-5.84,16.39-11.6,32.78-19.1,48.49-7.96,16.68-18.56,31.68-30.19,45.95-3.95,4.84-8.19,9.45-12.45,14.02-1.69,1.81-4.2,2.92-5.64,4.87-6.45,8.77-14.68,15.76-22.47,23.19-.3-.43-.51-1.01-.92-1.28-12.71-8.49-24.68-18-37.36-26.55-9.8-6.61-18.9-14.15-27.01-23.02-11.52-12.59-23.53-24.77-36.73-35.71-15.66-12.98-32.1-24.86-49.08-36.02-4.34-2.85-5.54-2.91-9.62.13-4.6,3.43-9.3,6.69-14.15,9.77-5.62,3.57-11.4,6.85-17.09,10.29-18.79,11.32-37.55,22.69-56.32,34.03Z"/>
    <path class="cls-3" d="m590.26,403.88c1.79-3.17,4.44-5.65,6.75-8.4,3.46-4.12,7.53-7.7,10.37-12.38,1.09-1.8,2.68-3.4,4.64-4.43,1.48-.77,2.54-1.97,3.61-3.19.51-.58.75-1.31.22-1.92-.49-.56-1.34-.76-1.99-.43-1.11.56-2.17,1.26-3.15,2.02-9.19,7.17-17.53,15.17-25.19,24-12.39,14.29-26.2,27.27-38.71,41.47-30.57,34.72-59.81,70.54-88.72,106.65-14.43,18.03-27.94,36.66-40.2,56.22-1.81,2.88-3.52,5.9-6.68,7.63,2.36-9.44,5.58-18.58,9.35-27.55,6.72-16,14.66-31.32,24.98-45.3,7.9-10.7,16.09-21.18,24.08-31.81,13.22-17.6,27.95-33.85,42.75-50.07,8.99-9.86,17.43-20.21,24.24-31.71,9.63-16.28,19.83-32.2,30.4-47.85,12.9-19.1,27.22-37.18,42.25-54.68,9.15-10.65,18.33-21.28,27.4-31.99,3.59-4.23,6.33-8.99,7.63-14.47,0,0,.18-.15.18-.15l-.15.1c-3.73,1.87-5.39,5.69-8.02,8.59-19.17,21.05-38.97,41.5-58.6,62.11-7.31,7.68-14.94,15.07-22.13,22.86-5.57,6.05-11.2,12.05-16.43,18.43-5.36,6.55-11.29,12.62-16.87,18.98-14.48,16.52-28.29,33.6-41.78,50.92-9.41,12.08-18.51,24.4-27.6,36.72-16.57,22.47-32.78,45.23-51.18,66.27-5.55,6.34-11.61,12.23-17.46,18.29-.91.94-1.78,2.16-3.7,2.05.35-.83.46-1.37.77-1.75,5.03-6.07,10.37-11.91,15.08-18.21,10.47-13.99,20.77-28.12,30.88-42.37,11.88-16.75,23.7-33.58,33.91-51.43,13.42-23.46,27.13-46.74,42.93-68.7,14.22-19.76,29.31-38.82,45.38-57.11,11.89-13.53,24.46-26.46,35.58-40.67,1.3-1.66,3.18-3.06,2.88-5.57,0,0,.3,0,.3,0l-.19-.08c-8.9,9.83-17.88,19.6-26.7,29.5-16.24,18.23-33.21,35.84-47.59,55.66-7.6,10.46-15.26,20.88-22.83,31.36-1.58,2.2-3.19,4.34-5.21,6.15-.19-2.74.36-5.44,1.22-7.96,4.14-12.06,5.35-24.77,8.37-37.08,3.23-13.15,4.02-26.66,5.48-40.07,1.23-2.19.92-4.5.59-6.82,0-3.72-.01-7.43-.02-11.15.31-6.39,1.04-12.79-.7-19.1-.12-1.19-.25-2.38-.37-3.56.75-4.43-.8-8.65-1.14-12.99-.07-.97-.79-1.5-1.66-1.82-.4-2.29-.68-4.6-1.22-6.86-2.81-11.64-7.36-22.46-15.47-31.47-4.96-5.51-10.82-10.03-16.84-14.31-7.13-5.07-13.14-11.22-17.89-18.56-9.51-14.67-9.4-30.54-5.63-46.83,4-5.09,5.34-11.75,9.8-16.56.95-.67,1.9-1.35,2.85-2.03,3.33,2.25,5.42-.56,7.46-2.16,5.81-4.58,11.92-8.7,18.12-12.7,16.43-10.62,34.29-16.5,53.98-16.24,10.15.13,19.92,2.87,29.89,4.25.73.1,1.44.31,1.7,1.09.32.97-.12,1.79-.86,2.36-.71.55-1.49,1.03-2.31,1.39-9.66,4.27-17.19,11.09-23.27,19.58-1.68,2.35-3.3,2.53-5.94,1.57-6.62-2.4-13.54-3.88-20.57-4.14-15.37-.56-25.37,5.15-31.29,17.54-2.11,4.41-3.81,8.96-4.88,13.71-3.09,13.74,2.87,26.69,14.96,32.71,12.89,6.42,30.97,1.83,39.05-10.09,3.94-5.81,7.34-11.98,11.38-17.71,3.45-4.88,3.72-4.75,9.37-2.42,12.68,5.22,25.58,5.59,38.56,1.47,7.95-2.52,14.57-7.08,18.75-14.55,3.86-6.9,3.62-13.7-.64-20.44-9.16-14.47-23.22-22.74-37.92-30.23-.94-.48-2.07-.58-3.11-.85-12.52-3.29-25.29-3.22-38.08-2.9,3.71-2.05,7.81-2.04,11.86-2.28,3.89-.23,7.82.41,11.7-.38,13.83.51,25.58,6.52,36.77,13.98,4.48,2.99,8.73,6.33,13.27,9.22,11.92,7.58,17.13,18.68,18.31,32.45,1.07,12.51-1.18,23.94-8.42,34.29-.82,1.17-1.34,2.54-1.99,3.81-.78.43-1.57.84-2.34,1.3-15.09,9.05-20.14,20.21-18.37,34.83,1.32,10.9,2.01,21.89,2.86,32.84.61,7.9,1.02,15.81,1.55,23.72.07,1.08-.98,2.46.74,3.25,5.31-5.68,9.37-12.36,14.96-17.74.86-.29,1.28-.92,1.38-1.8l.05-.08c.28-.39.56-.77.84-1.16,3.63-5.76,7.95-11.02,11.53-16.83,4.13-6.71,5.23-13.58,3.4-21.12-1.75-7.2-2.18-14.53-1.94-21.93.16-5.19,1.2-9.94,4.96-13.83,1.1-1.13,2.15-2.42,2.51-4.07,3.66-3.24,6.85-6.95,9.69-10.86,8.56-11.75,20.65-17.55,34.19-21.05,7.32-1.89,14.53-1.56,21.73.98,2.28.81,4.92.3,7.4.9,7.94,1.91,15.41,4.92,22.42,9.1,3.25,1.93,6.52,3.84,9.87,5.59,6.78,3.53,12.29,8.77,18.08,13.57,4.94,4.1,7.64,9.99,9.7,16,5.41,15.71,7.23,31.92,6.18,48.47-.15.36-.3.71-.45,1.07-2.31,4.6-4.67,9.18-6.93,13.8-3.75,7.66-8.53,14.7-14.36,20.82-6.23,6.54-12.7,12.96-21.21,16.77-6.85,3.07-13.18,2.91-19.15-2.03-4.06-3.36-8.59-5.77-13.79-7.09-8.03-2.05-14.92.02-21.12,5.13-5.33,4.38-9.78,9.58-13.38,15.44-11.68,19.02-24.39,37.34-37.79,55.16-5.06,6.74-11.06,12.78-16.72,19.07-5.04,5.61-9.85,11.39-13.69,17.92-1.97-.35-2.39-1.85-2.6-3.51,0,0,.07.02.07.02.36-.53.73-1.07,1.09-1.6Zm170.12-174.77c.27-7.41-2.37-14.74-4.18-22.26-1.83-7.59-6.27-13.06-12.07-17.99-12.64-10.75-27.04-18.39-42.23-24.61-6.52-2.67-13.56-4.14-20.61-2.99-18.71,3.05-35.27,16.48-39.5,35.29-4.1,18.22,1.08,29.73,14.83,38.82,2.54,1.68,5.23,3.17,7.96,4.55,7.09,3.58,13.96,7.5,19.88,12.85,3.87,3.49,7.49,7.26,11.31,10.81,6.49,6.03,14.13,9.37,23.05,8.74,21.34-1.51,41.88-17.68,41.56-43.21Zm-97.78,68.07c-2.05-.28-3.27,1.17-4.58,2.27-9.68,8.1-18.61,17-27.68,25.76-18.87,18.22-34.43,39.26-50.98,59.45-1.5,1.84-3.15,3.79-3.01,6.64,3.01.22,4.58-1.72,6.23-3.2,5.78-5.17,11.09-10.81,15.83-16.97,8.03-10.43,16.62-20.37,25.88-29.74,12.89-13.05,25.16-26.67,36.66-40.97.73-.91,2.01-1.59,1.66-3.24Z"/>
    <path class="cls-5" d="m500.79,332.55c-1.45,13.41-2.25,26.91-5.48,40.07-3.02,12.31-4.23,25.02-8.37,37.08-.86,2.52-1.41,5.21-1.22,7.95-.39,1.8-1.42,3.29-2.51,4.72-6.73,8.86-12.49,18.38-18.74,27.56-21.92,32.17-44.75,63.65-70.03,93.28-7.36,8.62-14.8,17.19-22.93,25.15-5.28,5.17-11.1,6.16-17.83,4.26-1.73-.49-3.48-.95-5.13-1.65-6.5-2.75-13.32-4.2-20.2-5.67-7.46-1.6-14.26-.35-20.85,3.1-1.41.74-2.68,1.89-4.47,1.56-1.66-1.49-1.12-2.95.3-4.1,2.78-2.27,5.66-4.35,9.3-5.2,8.12-1.9,16.01-2.05,23.43,2.48.76.47,1.61.8,2.44,1.14,1.63.67,3.21.6,4.5-.69,4.03-4.06,8.76-7.44,11.78-12.46,7.79-7.43,16.02-14.42,22.47-23.19,1.43-1.95,3.95-3.06,5.64-4.87,4.26-4.57,8.5-9.18,12.45-14.02,11.64-14.27,22.23-29.27,30.19-45.95,7.5-15.71,13.26-32.1,19.1-48.49,6.26-17.57,9.79-35.64,12.05-54.01,2.03-16.46,3.08-33.01,1.69-49.61-.16-17.04-4.98-32.96-11.73-48.41-1.41-3.22-3.9-5.58-6.46-7.85-3.23-2.86-6.64-5.53-9.73-8.54-17.76-17.32-22.32-45.73-10.94-67.78,3.98-7.72,8.87-14.78,14.98-21,5.16-5.25,10.06-10.76,15.07-16.16.22.43.43.86.65,1.28-4.47,4.81-5.8,11.48-9.8,16.56-3.77,16.29-3.87,32.16,5.63,46.83,4.75,7.33,10.76,13.49,17.89,18.56,6.02,4.28,11.88,8.81,16.84,14.31,8.11,9,12.66,19.83,15.47,31.47.54,2.25.82,4.57,1.22,6.85,1.64,4.8,1.33,9.97,2.8,14.81.12,1.19.25,2.38.37,3.56.05,6.37-.28,12.76.7,19.1,0,3.72.01,7.43.02,11.14-.77,2.22-.78,4.52-.59,6.83Z"/>
    <path class="cls-5" d="m631.04,190.21c-.36,1.65-1.41,2.94-2.51,4.07-3.76,3.89-4.8,8.64-4.96,13.83-.23,7.4.19,14.72,1.94,21.93,1.84,7.54.73,14.42-3.4,21.12-3.58,5.81-7.9,11.08-11.53,16.83-.28.39-.56.77-.84,1.16,0,0-.05.08-.05.08-.46.6-.92,1.2-1.38,1.8-5.59,5.38-9.64,12.06-14.96,17.74-1.72-.79-.66-2.17-.74-3.25-.54-7.9-.94-15.82-1.55-23.72-.85-10.96-1.54-21.94-2.86-32.84-1.77-14.62,3.28-25.77,18.37-34.83.77-.46,1.57-.87,2.34-1.3,7.21-2.23,14.59-3.02,22.12-2.61Z"/>
    <path class="cls-6" d="m345.45,143.37c-7.8-.03-12.04-6.06-9.41-13.49,1.75-4.94,4.01-9.68,7.15-13.88,3.98-5.32,6.24-5.57,11.64-1.81,9.65,6.71,10.56,12.77,3.38,22.1-3.25,4.23-7.35,6.81-12.77,7.08Z"/>
    <path class="cls-6" d="m227.29,288.03c7.97.12,13.85,5.64,13.62,12.53-.16,4.97-3.82,8.51-8.71,8.11-5.11-.41-9.24-2.8-12.16-7.08-2.16-3.17-1.85-6.47-.16-9.72,1.62-3.11,4.37-4.07,7.4-3.84Z"/>
    <path class="cls-2" d="m550.99,99.07c-3.88.79-7.8.15-11.7.38-4.05.24-8.16.23-11.86,2.28-.68.22-1.34.53-2.04.65-27.99,4.92-51.96,17.54-72.04,37.64-.51-.57-1.01-1.13-1.52-1.7,1.13-3.23,3.86-5.15,6.24-7.27,14.15-12.58,30.22-21.64,48.41-27.15,13.37-4.05,26.88-6.15,40.82-5.47,1.25.06,2.52.02,3.67.64Z"/>
    <path class="cls-6" d="m272.24,193.68c.18-6.24,6.09-9.72,11.27-6.62.45.27.99.54,1.27.95,2.41,3.51.23,6.48-1.35,9.37-1.87,3.4-3.67,4.15-6.42,3.24-3.05-1.02-4.86-3.66-4.76-6.94Z"/>
    <path class="cls-4" d="m451.84,138.32c.51.57,1.01,1.13,1.52,1.69,0,.21-.09.37-.28.48-.95.68-1.9,1.35-2.85,2.03-.21-.43-.43-.86-.65-1.29.31-1.31,1.24-2.14,2.25-2.91Z"/>
    <path class="cls-2" d="m785.11,264.46c-1.31.27-2.13-.28-2.56-1.51,1.15,0,1.95.58,2.56,1.51Z"/>
    <path class="cls-2" d="m769.84,253.99c.15-.36.3-.72.45-1.07.12.52.25,1.03.37,1.55-.28-.14-.56-.3-.83-.48Z"/>
    <path class="cls-2" d="m793.66,267.83c-.44-.21-.88-.42-1.32-.63.44.21.88.42,1.32.63Z"/>
    <path class="cls-4" d="m354.79,551.12c-3.02,5.01-7.76,8.4-11.78,12.46-1.28,1.29-2.87,1.36-4.5.69-.83-.34-1.67-.68-2.44-1.14-7.43-4.54-15.31-4.39-23.43-2.48-3.64.85-6.52,2.94-9.3,5.2-1.41,1.15-1.96,2.61-.3,4.1-.26,1.62-1.67,2.2-2.72,3.14-6.83,6.07-11.85,13.35-14.18,22.27-1.44,5.51.36,9.88,4.97,12.82-1.63,2.17-3.92,3.56-6.08,5.1-.54.38-1.07.75-1.61,1.13,0,0,.06-.04.06-.04-.36.38-.72.76-1.09,1.15,0,0,.23.07.23.07-4.72.77-7.74,4.34-11.04,7.17-6.01,5.15-10.87,11.42-15.31,17.97-3.29,4.86-4.89,10.39-5.28,16.2-.55,8.22-1.61,16.43-1.26,24.7-8.04,7.2-15.87,14.65-24.18,21.52-7.5,6.19-14,13.45-21.52,19.59-.97.79-1.94,1.64-3.04,2.22-2.75,1.47-4.23,1.14-6.52-1.65-4.46-5.42-8.87-10.89-13.2-16.42-10.35-13.23-18.41-27.93-27.17-42.19-10.05-16.35-18.12-33.65-24.66-51.61-7.58-20.82-14.44-41.9-18.2-63.84-.83-4.87.88-6.46,5.54-4.67,5.24,2.02,9.7,5.51,14.34,8.59,28.51,18.92,58.08,36.16,86.91,54.56,9.36,5.97,6.38,5.75,16.14.09,6.05-3.51,12.42-6.29,19.07-8.16.12-1.96-1.33-2.33-2.28-2.99-25.16-17.45-50.74-34.23-76.64-50.56-15.22-9.59-30.22-19.54-45.27-29.4-2.64-1.73-5.12-2.22-8.09-.83-3.25,1.53-6.62,2.77-9.67,4.76-2.27,1.48-3.11.96-3.62-1.7-.1-.53-.12-1.08-.13-1.61-.36-11.52-.71-23.04-1.07-34.56,18.77-11.35,37.53-22.71,56.32-34.03,5.69-3.43,11.47-6.71,17.09-10.29,4.85-3.08,9.55-6.34,14.15-9.77,4.09-3.04,5.29-2.98,9.62-.13,16.98,11.16,33.42,23.04,49.08,36.02,13.19,10.94,25.21,23.12,36.73,35.71,8.11,8.87,17.21,16.41,27.01,23.02,12.68,8.55,24.66,18.06,37.36,26.55.41.27.62.85.92,1.28Zm-113.71-27.74c0-2.16.08-4.32-.02-6.47-.1-2.04.71-3.02,2.78-2.98,3.77.06,7.55,0,11.31.14,2.23.09,3.37-.45,3.09-2.99-.34-3.03-.5-6.1-.56-9.15-.05-2.49-1.06-3.57-3.6-3.45-3.23.15-6.47.12-9.7.12-3.88,0-3.91-.02-3.99-3.73-.08-3.78-.11-7.55-.09-11.33,0-2.21-.93-3.33-3.21-3.31-3.05.03-6.11.05-9.16-.05-2.29-.08-3.28.88-3.22,3.16.11,4.13,0,8.28.23,12.4.14,2.56-.74,3.66-3.31,3.59-3.23-.08-6.47.03-9.7,0-2.29-.02-3.18,1.04-3.04,3.34.19,3.05.21,6.11.23,9.17.01,2.23.9,3.32,3.26,3.09,3.04-.3,6.09-.46,9.13-.69q4.52-.33,4.71,3.94c.15,3.41.24,6.83.47,10.24.32,4.79.37,4.91,4.89,4.83,11.46-.2,9.98,1.96,9.48-9.87Z"/>
    <path class="cls-6" d="m291.12,608.17c-4.61-2.94-6.41-7.31-4.97-12.82,2.33-8.92,7.35-16.2,14.18-22.27,1.05-.94,2.47-1.52,2.72-3.14,1.79.33,3.06-.82,4.47-1.56,6.59-3.45,13.39-4.69,20.85-3.1,6.87,1.47,13.7,2.92,20.2,5.67,1.65.7,3.4,1.16,5.13,1.65,6.72,1.9,12.55.91,17.83-4.26,8.13-7.96,15.57-16.52,22.93-25.15,25.28-29.63,48.11-61.11,70.03-93.28,6.25-9.18,12.01-18.7,18.74-27.56,1.09-1.43,2.12-2.92,2.51-4.72,2.01-1.8,3.62-3.94,5.2-6.14,7.57-10.49,15.23-20.9,22.83-31.36,14.39-19.82,31.36-37.43,47.59-55.66,8.82-9.9,17.79-19.67,26.7-29.5l-.1.08c.3,2.51-1.58,3.91-2.88,5.57-11.12,14.2-23.7,27.14-35.58,40.67-16.07,18.29-31.16,37.35-45.38,57.11-15.8,21.97-29.51,45.24-42.93,68.7-10.21,17.85-22.02,34.68-33.91,51.43-10.11,14.25-20.41,28.38-30.88,42.37-4.72,6.3-10.05,12.14-15.08,18.21-.31.37-.41.92-.77,1.75,1.92.11,2.79-1.11,3.7-2.05,5.86-6.06,11.92-11.95,17.46-18.29,18.41-21.04,34.61-43.8,51.18-66.27,9.09-12.32,18.19-24.64,27.6-36.72,13.5-17.32,27.31-34.4,41.78-50.92,5.58-6.37,11.52-12.44,16.87-18.98,5.23-6.38,10.86-12.38,16.43-18.43,7.18-7.8,14.81-15.18,22.13-22.86,19.63-20.61,39.43-41.06,58.6-62.11,2.64-2.9,4.29-6.72,8.02-8.59l-.03.05c-1.3,5.48-4.04,10.23-7.63,14.47-9.08,10.71-18.26,21.34-27.4,31.99-15.02,17.5-29.35,35.57-42.25,54.68-10.57,15.65-20.77,31.58-30.4,47.85-6.81,11.5-15.25,21.85-24.24,31.71-14.8,16.22-29.53,32.48-42.75,50.07-7.99,10.63-16.18,21.11-24.08,31.81-10.32,13.98-18.26,29.3-24.98,45.3-3.77,8.98-6.99,18.11-9.35,27.55-1.72,1.71-.52,3.34.2,4.93,3.95,8.67,7.93,17.33,11.29,26.25,2.41,6.4,4.57,12.85,4.52,19.86-.04,4.98-1.74,9.09-5.01,12.73-3.05,3.4-6.72,5.96-10.65,8.19-10.16,5.75-20.53,11.17-30.32,17.58-3.74-6.21-3.57-12.57-1.16-19.22,3.47-9.57,7.8-18.58,14.71-26.2,2.83-3.13,4.38-7,5.42-11.05.5-1.96.95-4.35-1.12-5.37-2.51-1.24-3.22,1.55-4.31,2.98-3.59,4.73-6.76,9.93-11.8,13.25-16.18,10.67-33.39,13.17-51.23,4.75-16.35-7.72-27.39-27.65-17.49-48.34,6.68-13.95,16.27-25.21,31.18-31.45-2.03-1.52-4.47-1.7-6.52-2.76-8.25-4.26-16.71-3.44-25.25-1.14-4.73,1.27-8.34,4.06-11.2,7.99-3.96,5.44-5.67,11.61-5.96,18.22-.2,4.69.02,5.66-5.42,5.86Zm36.52,21.72c.02,13.99,11.12,25.14,24.99,25.09,13.87-.05,25.82-12.55,25.64-26.85-.13-10.9-13.83-22.71-26.29-22.66-13.66.05-24.36,10.78-24.35,24.41Z"/>
    <path class="cls-3" d="m474.25,767.8c-.06-1.62-.33-3.26-.16-4.85,2.55-23.67-2.99-46.24-9.88-68.46-6.97-22.5-13.8-45.09-23.17-66.78-1.48-3.42-1.26-6.49.49-9.78,9.94-18.75,18.99-37.98,29.88-56.24,12.25-20.54,25.26-40.56,38.93-60.19,10.23-14.69,21.29-28.59,34.39-40.76,6.49-6.03,11.65-13.22,17.8-19.49.25,2.57-1.15,4.48-2.47,6.41-2.13,3.12-4.24,6.25-6,9.62-12.37,23.73-19.9,49.04-24.3,75.32-5.41,32.33-6.5,64.89-4.09,97.57,1.59,21.47,5.67,42.48,11.55,63.17,5.71,20.12,11.54,40.19,21.28,58.84.94,1.81.31,2.7-1.42,3.14-2.44.61-4.88,1.29-7.36,1.69-10.3,1.64-20.21,4.03-26.94,13.05-1.51,2.02-3.14,1.78-5.07.32-3.59-2.72-7.29-5.29-11.01-7.82-8.92-6.05-15.89-5.87-24.7.55-1.02.74-1.97,1.58-2.99,2.32-1.46,1.06-2.91,2.13-4.77,2.38Zm35.21-28.7c1.2-3.5,1.12-6.99.03-10.5-.4-2.84-1.12-5.67-1.16-8.51-.15-10.46-2.37-20.63-4.15-30.85-3.12-17.92-8.05-35.45-11.68-53.26-2.37-11.64-5.57-23.09-7.43-34.84-.84-5.33-2.1-10.59-3.22-15.87-.18-.86-.61-1.78-1.68-1.83-1.08-.05-1.54.85-1.84,1.68-.76,2.08-.59,4.28-.47,6.42,1.15,19.99,3.94,39.78,8.16,59.32,3.38,15.65,7.54,31.13,11.54,46.64,3.7,14.33,7.08,28.68,6.07,43.66-.02.36-.02.72,0,1.08.08,1.07.03,2.28,1.4,2.57,1.17.25,2.06-.4,2.81-1.23,1.16-1.28,1.3-2.93,1.62-4.51Zm-21.75-178.54s-.05,0-.08,0c.07,1.26.11,2.52.23,3.78,2.83,31.27,7.74,62.19,15.33,92.68,5.74,23.07,11.47,46.14,17.14,69.22.86,3.49,1.24,7.1,2.04,10.61.41,1.78,1.16,3.41,3.69,2.91,2.76-.55,2.06-2.27,1.8-4.1-1.15-8.08-3.99-15.7-6.16-23.5-6.98-25.16-14.02-50.31-18.42-76.1-4-23.44-6.84-47.06-10.26-70.59-.52-3.56-1.33-7.08-2.04-10.61-.19-.93-.7-1.82-1.75-1.67-.96.13-1.46,1.02-1.5,1.97-.06,1.8-.02,3.6-.02,5.41Z"/>
    <path class="cls-3" d="m578.36,753.89c2.76.36,3.85,3.03,5.95,4.31,3.22,1.97,6.34,4.11,9.64,5.95,10.68,5.94,17.41,14.75,20.16,26.72,1.13,4.92,2.31,9.84,2.84,14.84,1.4,13.13-2.46,24.52-11.79,33.96-6.91,6.99-14.89,12.53-23.76,16.64-16.97,7.86-34.85,12.55-53.52,13.8-13.5.9-26.52-1.96-39.11-6.57-8.78-3.22-17.18-7.38-25.45-11.77-9.66-5.13-16.87-12.92-22.54-21.94-5.71-9.11-6.7-19.43-4.65-29.93,1.21-6.22,4.42-11.34,9.49-15.26,4.58-3.54,9.55-6.43,14.74-8.95,3.72-1.81,7.44-3.62,11.16-5.42-.6,3-1.26,5.98-1.79,8.98-1.72,9.75-1.76,19.35,2.73,28.49,3.93,8.01,10.35,12.19,19.33,12.24,3.77.02,7.55.02,11.32-.1,4.58-.15,8.88.72,13.04,2.71,4.88,2.33,9.95,4.29,15.38,4.74,6.8.56,13.63,1.07,20.44,1.09,17.51.04,29.98-8.44,38.35-23.49,3.3-5.94,3.97-12.18,2.39-18.78-1.57-6.56-4.82-12.35-7.81-18.29-2.31-4.59-5.39-8.83-6.54-13.97Z"/>
    <path class="cls-6" d="m578.36,753.89c1.15,5.14,4.23,9.38,6.54,13.97,2.99,5.94,6.24,11.73,7.81,18.29,1.58,6.6.91,12.84-2.39,18.78-8.37,15.05-20.84,23.53-38.35,23.49-6.82-.01-13.64-.53-20.44-1.09-5.43-.45-10.5-2.41-15.38-4.74-4.16-1.99-8.46-2.86-13.04-2.71-3.77.12-7.55.12-11.32.1-8.98-.05-15.39-4.23-19.33-12.24-4.49-9.14-4.45-18.75-2.73-28.49.53-3,1.19-5.99,1.79-8.98.92-.83,1.83-1.65,2.74-2.47,1.86-.25,3.31-1.32,4.77-2.38,1.02-.74,1.97-1.58,2.99-2.32,8.81-6.42,15.78-6.6,24.7-.55,3.72,2.53,7.43,5.1,11.01,7.82,1.93,1.46,3.56,1.71,5.07-.32,6.73-9.03,16.64-11.41,26.94-13.05,2.48-.4,4.92-1.08,7.36-1.69,1.73-.43,2.36-1.33,1.42-3.14-9.74-18.65-15.57-38.73-21.28-58.84-5.88-20.69-9.96-41.7-11.55-63.17-2.41-32.68-1.33-65.24,4.09-97.57,4.4-26.27,11.93-51.59,24.3-75.32,1.76-3.37,3.86-6.5,6-9.62,1.32-1.93,2.72-3.84,2.47-6.41,7.04-9.63,14.06-19.24,21.09-28.85,1.46.78,2.92,1.56,4.39,2.34-17.84,26.05-29.69,54.95-39.73,84.63-4.61,13.64-6.98,27.91-8.55,42.24-1.93,17.55-3.16,35.16-3.39,52.82-.33,25,3.45,49.51,8.97,73.8,4.13,18.2,9.29,36.1,15.81,53.58,2.63,7.06,5.98,13.79,9.87,20.24,1.67,2.77,3.21,5.62,4.81,8.43.3.94.48,1.97,1.62,2.34l-.05-.08c-.03.74.18,1.28,1.06,1.22l-.05-.07Zm-11.62,24.1c-7.02-.06-18.69,3.9-26.29,8.91-2.89,1.91-5.27,4.34-7.26,7.17-3.45,4.89-3.56,10.16-1.12,15.36,4.42,9.42,17.77,15.6,27.85,12.86,10.08-2.73,17.44-9.17,22.56-18.1,5.33-9.31.86-26.87-15.74-26.2Zm-74.62,35.54c16.89-.46,23.98-14.61,22.02-27.06-1.81-11.49-14.1-16.6-24-10.34-9.06,5.73-13.54,16.71-11.07,27.14,1.69,7.13,5.67,10.25,13.05,10.26Z"/>
    <path class="cls-3" d="m291.12,608.17c5.44-.2,5.21-1.17,5.42-5.86.29-6.6,2-12.78,5.96-18.22,2.86-3.93,6.47-6.72,11.2-7.99,8.54-2.3,17.01-3.12,25.25,1.14,2.04,1.06,4.49,1.24,6.52,2.76-14.91,6.24-24.5,17.5-31.18,31.45-9.9,20.69,1.15,40.62,17.49,48.34,17.84,8.42,35.05,5.92,51.23-4.75,5.04-3.32,8.2-8.52,11.8-13.25,1.09-1.43,1.8-4.22,4.31-2.98,2.07,1.02,1.63,3.41,1.12,5.37-1.04,4.05-2.59,7.92-5.42,11.05-6.91,7.63-11.24,16.64-14.71,26.2-2.41,6.65-2.59,13.02,1.16,19.22-6.92,5.63-15.29,7.31-23.74,7.65-21.57.86-40.24-6.56-55.75-21.57-8.48-8.21-15.23-17.72-19.91-28.65-2.21-5.17-3.88-10.48-4.63-16.04-.99-7.32-.09-14.37,3.46-20.97.92-1.71,2.15-3.35,1.92-5.49,0,0-.23-.07-.23-.07,1.21.42,1.31-.2,1.09-1.15,0,0-.06.04-.06.04.95.21,1.28-.46,1.61-1.13,2.16-1.54,4.45-2.93,6.08-5.1Z"/>
    <path class="cls-2" d="m588.01,414.73c-1.46-.78-2.92-1.56-4.39-2.34,1.39-2.65,3.1-5.05,5.47-6.94.21,1.66.64,3.16,2.6,3.51-.82,2.18-2.02,4.12-3.68,5.77Z"/>
    <path class="cls-2" d="m610.9,428.34c-.12.86-.55,1.47-1.37,1.78.21-.79.64-1.4,1.37-1.78Z"/>
    <path class="cls-2" d="m622.81,413.3c-.14.81-.57,1.39-1.35,1.7.19-.78.63-1.35,1.35-1.7Z"/>
    <path class="cls-2" d="m619.53,417.49c-.12.92-.58,1.57-1.47,1.88.24-.83.66-1.51,1.47-1.88Z"/>
    <path class="cls-3" d="m577.4,752.82c-1.13-.37-1.31-1.4-1.62-2.34,1.17.34,1.83,1.04,1.62,2.34Z"/>
    <path class="cls-2" d="m614.12,424.05c-.1.86-.53,1.49-1.31,1.87.19-.8.57-1.46,1.31-1.87Z"/>
    <path class="cls-2" d="m634.59,399.05c-.32.36-.63.73-.95,1.09.08-.57.4-.93.95-1.09Z"/>
    <path class="cls-2" d="m632.17,401.92c-.33.42-.67.84-1,1.26.33-.42.67-.84,1-1.26Z"/>
    <path class="cls-2" d="m590.26,403.88c-.36.53-.73,1.07-1.09,1.6.03-.77.47-1.25,1.09-1.6Z"/>
    <path class="cls-2" d="m624.8,410.91c-.31.37-.61.74-.92,1.11.08-.56.38-.93.92-1.11Z"/>
    <path class="cls-2" d="m623.81,412.09c-.3.35-.6.71-.91,1.06.07-.56.37-.91.91-1.06Z"/>
    <path class="cls-2" d="m620.44,416.32c-.3.38-.59.76-.89,1.14.3-.38.59-.76.89-1.14Z"/>
    <path class="cls-2" d="m618.14,419.29c-.35.41-.71.81-1.06,1.22.35-.41.71-.81,1.06-1.22Z"/>
    <path class="cls-2" d="m617.14,420.45c-.35.41-.7.82-1.05,1.23.35-.41.7-.82,1.05-1.23Z"/>
    <path class="cls-2" d="m616.14,421.61c-.35.4-.69.8-1.04,1.21.13-.59.47-.99,1.04-1.21Z"/>
    <path class="cls-2" d="m615.13,422.79c-.31.39-.63.77-.94,1.16.06-.59.39-.97.94-1.16Z"/>
    <path class="cls-2" d="m631.16,403.19c-.32.39-.64.79-.96,1.18.32-.39.64-.79.96-1.18Z"/>
    <path class="cls-2" d="m612.81,425.92c-.32.4-.63.8-.95,1.2.09-.58.4-.98.95-1.2Z"/>
    <path class="cls-2" d="m611.87,427.11c-.31.39-.62.79-.93,1.18.07-.59.39-.98.93-1.18Z"/>
    <path class="cls-2" d="m633.56,400.24c-.29.32-.57.64-.86.96.06-.53.37-.82.86-.96Z"/>
    <path class="cls-3" d="m578.41,753.96c-.88.06-1.09-.48-1.06-1.22.8.02,1.16.42,1.06,1.22Z"/>
    <path class="cls-1" d="m733.76,382.35c-.51-1.76.51-3.11,1.27-4.49,8.9-16.21,15.68-33.43,23.83-50,1.11-2.25,2.01-4.62,3.21-6.82,2.01-3.68,4.95-6.09,9.4-6.05.04,3.41-.07,6.83.16,10.23.72,10.64-3.26,19.62-9.43,27.91-5.7,7.66-12.56,14.26-19.19,21.06-2.85,2.92-4.89,6.75-9.04,8.24,0,0-.21-.07-.21-.07Z"/>
    <path class="cls-6" d="m874.48,312.45c-2.18,3.63-5.6,6.12-8.69,8.78-10.13,8.69-20.72,16.8-32.89,22.48-7.83,3.66-15.6,7.54-22.62,12.49-4.78,3.37-8.87,7.83-12.68,12.4-3.34,4.01-6.6,8.1-10.02,12.05-4.28,4.93-9.29,8.94-16.09,11.97.76-1.89,1.92-2.32,2.78-2.93,8.46-6.06,14.98-14.04,21.23-22.17,6.87-8.94,15.4-15.51,25.39-20.42,17.51-8.62,34.27-18.36,48.36-32.14,1.4-1.37,2.98-2.64,5.16-2.56l.07.05Z"/>
    <path class="cls-4" d="m733.76,382.35s.21.08.21.07c-1.95,5.54-5.5,9.68-10.77,12.31,2.87-4.69,6.27-8.91,10.57-12.38Z"/>
    <path class="cls-4" d="m719.48,397.99c.53-.38,1.07-.76,1.6-1.14-.53.38-1.07.76-1.6,1.14Z"/>
    <path class="cls-4" d="m721.03,396.9c.38-.38.75-.76,1.13-1.13-.38.38-.75.76-1.13,1.13Z"/>
    <path class="cls-4" d="m722.11,395.82c.38-.38.75-.76,1.13-1.13-.38.38-.75.76-1.13,1.13Z"/>
    <path class="cls-6" d="m760.38,229.11c.32,25.53-20.23,41.7-41.56,43.21-8.92.63-16.56-2.71-23.05-8.74-3.82-3.55-7.44-7.32-11.31-10.81-5.92-5.35-12.79-9.26-19.88-12.85-2.72-1.38-5.41-2.87-7.96-4.55-13.75-9.1-18.93-20.61-14.83-38.82,4.23-18.82,20.79-32.24,39.5-35.29,7.05-1.15,14.08.32,20.61,2.99,15.2,6.22,29.6,13.87,42.23,24.61,5.8,4.93,10.25,10.39,12.07,17.99,1.81,7.52,4.44,14.85,4.18,22.26Zm-40.32,27.49c3.51,0,6.86-.74,9.72-2.79,8.88-6.34,14.09-14.84,14.45-25.91.27-8.53-8.05-18.76-16.4-20.58-2.68-.58-4.82-.18-6.74,2.08-3.38,3.98-7.04,7.72-10.55,11.58-2.92,3.21-5.35,6.72-7.2,10.71-6.3,13.55,4.47,25.11,16.73,24.91Zm-64.84-47.28c-.05,8.57,5.23,16.13,13.17,19.24,9.47,3.72,17.54.95,24.11-5.87,10.18-10.58,9.69-19.59.59-29.37-1.72-1.85-3.62-3.51-5.76-4.87-2.97-1.89-6.21-2.73-9.75-2.53-10.95.63-22.29,12.46-22.35,23.39Z"/>
    <path class="cls-6" d="m453.08,140.49c.18-.1.28-.27.28-.48,20.07-20.1,44.05-32.71,72.04-37.63.7-.12,1.36-.43,2.04-.65,12.79-.32,25.56-.39,38.08,2.9,1.04.27,2.17.37,3.11.85,14.69,7.49,28.76,15.76,37.92,30.23,4.26,6.74,4.5,13.53.64,20.44-4.18,7.48-10.79,12.03-18.75,14.55-12.98,4.11-25.88,3.74-38.56-1.47-5.65-2.32-5.92-2.46-9.37,2.42-4.04,5.73-7.44,11.9-11.38,17.71-8.08,11.92-26.16,16.51-39.05,10.09-12.09-6.02-18.05-18.97-14.96-32.71,1.07-4.76,2.77-9.3,4.88-13.71,5.92-12.39,15.92-18.1,31.29-17.54,7.03.26,13.95,1.73,20.57,4.14,2.64.96,4.26.78,5.94-1.57,6.08-8.49,13.61-15.32,23.27-19.58.82-.36,1.6-.84,2.31-1.39.74-.57,1.17-1.39.86-2.36-.25-.78-.96-.99-1.7-1.09-9.97-1.38-19.75-4.12-29.89-4.25-19.7-.26-37.55,5.62-53.98,16.24-6.2,4.01-12.31,8.13-18.12,12.7-2.04,1.6-4.13,4.42-7.46,2.16Zm51.8,53.26c10.16,1.19,23.57-11.56,23.47-25.6-.08-12.03-10.01-22.11-21.95-22-13.57.12-24.21,11.49-24.2,25.84,0,12.32,9.95,21.85,22.68,21.76Zm65.52-32.7c15.75.19,23.33-16.31,18.11-25.44-3.84-6.72-9.39-11.24-17.02-12.96-3.65-.82-7.13-.35-10.29,1.8-4.21,2.85-7.88,6.28-10.59,10.58-4.37,6.94-2.88,15.16,3.65,20.13,5.17,3.94,11.24,5.38,16.15,5.89Z"/>
    <path class="cls-6" d="m662.6,297.18c.35,1.65-.93,2.33-1.66,3.24-11.5,14.3-23.77,27.92-36.66,40.97-9.26,9.37-17.85,19.31-25.88,29.74-4.74,6.16-10.04,11.8-15.83,16.97-1.65,1.48-3.22,3.42-6.23,3.2-.14-2.84,1.51-4.8,3.01-6.64,16.55-20.19,32.11-41.24,50.98-59.45,9.07-8.76,18.01-17.66,27.68-25.76,1.31-1.1,2.53-2.54,4.58-2.27Z"/>
    <path class="cls-2" d="m500.28,291.91c-1.46-4.84-1.16-10.01-2.8-14.81.87.33,1.59.86,1.66,1.82.33,4.33,1.89,8.56,1.14,12.99Z"/>
    <path class="cls-2" d="m501.36,314.57c-.99-6.34-.65-12.73-.7-19.1,1.74,6.31,1.01,12.72.7,19.1Z"/>
    <path class="cls-2" d="m500.79,332.55c-.19-2.31-.18-4.61.59-6.83.33,2.33.64,4.64-.59,6.83Z"/>
    <path class="cls-2" d="m608.31,271.02c.46-.6.92-1.2,1.38-1.8-.1.87-.52,1.5-1.38,1.8Z"/>
    <polygon class="cls-6" points="588.05 294.97 588.24 295.05 587.94 295.05 588.05 294.97"/>
    <polygon class="cls-6" points="644.32 275.64 644.47 275.54 644.29 275.69 644.32 275.64"/>
    <path class="cls-2" d="m609.74,269.14c.28-.39.56-.77.84-1.16-.28.39-.56.77-.84,1.16Z"/>
    <path class="cls-6" d="m241.08,523.39c.5,11.83,1.98,9.67-9.48,9.87-4.52.08-4.57-.05-4.89-4.83-.23-3.41-.32-6.82-.47-10.24q-.19-4.27-4.71-3.94c-3.04.22-6.1.39-9.13.69-2.36.23-3.25-.86-3.26-3.09-.02-3.06-.04-6.12-.23-9.17-.14-2.29.74-3.35,3.04-3.34,3.23.02,6.47-.08,9.7,0,2.57.06,3.45-1.04,3.31-3.59-.23-4.13-.13-8.27-.23-12.4-.06-2.28.93-3.24,3.22-3.16,3.05.11,6.11.08,9.16.05,2.28-.02,3.22,1.1,3.21,3.31-.01,3.78.02,7.55.09,11.33.08,3.71.11,3.73,3.99,3.73,3.23,0,6.47.03,9.7-.12,2.54-.12,3.55.97,3.6,3.45.06,3.05.22,6.12.56,9.15.29,2.54-.85,3.08-3.09,2.99-3.77-.15-7.54-.08-11.31-.14-2.07-.03-2.88.94-2.78,2.98.1,2.15.02,4.31.02,6.47Z"/>
    <path class="cls-5" d="m285.04,613.27c-.33.68-.66,1.35-1.61,1.13.54-.38,1.07-.75,1.61-1.13Z"/>
    <path class="cls-5" d="m283.48,614.37c.23.94.12,1.57-1.09,1.15.36-.38.72-.76,1.09-1.15Z"/>
    <path class="cls-3" d="m327.63,629.89c-.02-13.63,10.68-24.36,24.35-24.41,12.46-.05,26.16,11.76,26.29,22.66.17,14.3-11.77,26.8-25.64,26.85-13.87.05-24.97-11.1-24.99-25.09Z"/>
    <path class="cls-6" d="m509.46,739.1c-.32,1.58-.45,3.23-1.62,4.51-.76.83-1.65,1.48-2.81,1.23-1.37-.3-1.32-1.5-1.4-2.57-.03-.36-.03-.72,0-1.08,1.01-14.98-2.37-29.33-6.07-43.66-4-15.51-8.16-30.99-11.54-46.64-4.22-19.54-7.01-39.33-8.16-59.32-.12-2.14-.29-4.34.47-6.42.3-.83.76-1.73,1.84-1.68,1.07.05,1.5.97,1.68,1.83,1.13,5.28,2.38,10.55,3.22,15.87,1.86,11.75,5.05,23.21,7.43,34.84,3.63,17.81,8.55,35.34,11.68,53.26,1.78,10.22,4,20.39,4.15,30.85.04,2.84.75,5.67,1.16,8.5,0,3.5-.02,7-.03,10.5Z"/>
    <path class="cls-6" d="m487.71,560.56c0-1.8-.05-3.61.02-5.41.03-.95.54-1.84,1.5-1.97,1.06-.15,1.57.75,1.75,1.67.71,3.53,1.52,7.05,2.04,10.61,3.42,23.53,6.26,47.15,10.26,70.59,4.4,25.78,11.44,50.93,18.42,76.1,2.16,7.8,5.01,15.43,6.16,23.5.26,1.83.96,3.55-1.8,4.1-2.53.5-3.28-1.12-3.69-2.91-.8-3.51-1.18-7.12-2.04-10.61-5.67-23.09-11.39-46.16-17.14-69.22-7.59-30.48-12.5-61.41-15.33-92.68-.11-1.26-.15-2.52-.23-3.78.03,0,.05,0,.08,0Z"/>
    <path class="cls-2" d="m509.46,739.1c0-3.5.02-7.01.03-10.5,1.1,3.51,1.18,7.01-.03,10.5Z"/>
    <path class="cls-3" d="m566.74,777.99c16.61-.67,21.07,16.9,15.74,26.2-5.12,8.93-12.48,15.37-22.56,18.1-10.08,2.73-23.44-3.45-27.85-12.86-2.44-5.2-2.32-10.47,1.12-15.36,1.99-2.82,4.36-5.26,7.26-7.17,7.6-5.02,19.27-8.97,26.29-8.91Z"/>
    <path class="cls-3" d="m492.12,813.53c-7.38,0-11.36-3.13-13.05-10.26-2.47-10.43,2.01-21.41,11.07-27.14,9.9-6.26,22.19-1.15,24,10.34,1.96,12.44-5.13,26.6-22.02,27.06Z"/>
    <path class="cls-3" d="m720.06,256.6c-12.26.2-23.02-11.36-16.73-24.91,1.85-3.99,4.28-7.49,7.2-10.71,3.51-3.86,7.17-7.6,10.55-11.58,1.92-2.26,4.05-2.66,6.74-2.08,8.35,1.82,16.67,12.05,16.4,20.58-.35,11.07-5.57,19.57-14.45,25.91-2.86,2.04-6.21,2.79-9.72,2.79Z"/>
    <path class="cls-3" d="m655.22,209.32c.07-10.93,11.4-22.77,22.35-23.39,3.54-.2,6.78.64,9.75,2.53,2.14,1.36,4.04,3.01,5.76,4.87,9.1,9.78,9.59,18.8-.59,29.37-6.56,6.82-14.64,9.59-24.11,5.87-7.94-3.12-13.22-10.67-13.17-19.24Z"/>
    <path class="cls-3" d="m504.88,193.75c-12.73.09-22.67-9.44-22.68-21.76-.01-14.35,10.63-25.71,24.2-25.84,11.94-.11,21.87,9.97,21.95,22,.1,14.04-13.31,26.8-23.47,25.6Z"/>
    <path class="cls-3" d="m570.4,161.05c-4.91-.51-10.98-1.95-16.15-5.89-6.53-4.97-8.02-13.2-3.65-20.13,2.71-4.31,6.38-7.73,10.59-10.58,3.16-2.15,6.65-2.62,10.29-1.8,7.63,1.72,13.18,6.24,17.02,12.96,5.22,9.13-2.36,25.63-18.11,25.44Z"/>
  </g>
</svg>